{
.appVersion = "895";
DisplayStrings = (
/integral
);
copyright = "SIL OPEN FONT LICENSE Version 1.1";
date = "2017-03-04 05:06:27 +0000";
designer = "Trevor Bullock";
familyName = "KA Old Style Chronos";
fontMaster = (
{
ascender = 800;
capHeight = 700;
descender = -200;
id = "30EC318A-0B0E-41B4-91F7-41CEE05FF9CE";
xHeight = 500;
}
);
glyphs = (
{
glyphname = a;
lastChange = "2019-03-05 23:01:07 +0000";
layers = (
{
layerId = "30EC318A-0B0E-41B4-91F7-41CEE05FF9CE";
paths = (
{
closed = 1;
nodes = (
"-725 254 OFFCURVE",
"-736 273 OFFCURVE",
"-747 305 CURVE SMOOTH",
"-756 335 OFFCURVE",
"-766 348 OFFCURVE",
"-774 348 CURVE SMOOTH",
"-775 348 OFFCURVE",
"-777 349 OFFCURVE",
"-778 351 CURVE SMOOTH",
"-780 355 OFFCURVE",
"-780 364 OFFCURVE",
"-777 367 CURVE SMOOTH",
"-774 370 OFFCURVE",
"-748 369 OFFCURVE",
"-661 369 CURVE SMOOTH",
"-623 369 OFFCURVE",
"-585 369 OFFCURVE",
"-547 369 CURVE",
"-548 373 OFFCURVE",
"-549 377 OFFCURVE",
"-551 380 CURVE SMOOTH",
"-558 397 OFFCURVE",
"-564 431 OFFCURVE",
"-582 438 CURVE SMOOTH",
"-587 440 OFFCURVE",
"-588 441 OFFCURVE",
"-588 446 CURVE SMOOTH",
"-588 453 OFFCURVE",
"-590 456 OFFCURVE",
"-586 459 CURVE SMOOTH",
"-583 460 OFFCURVE",
"-511 460 OFFCURVE",
"-473 460 CURVE SMOOTH",
"-359 460 OFFCURVE",
"-303 459 OFFCURVE",
"-282 454 CURVE SMOOTH",
"-261 449 OFFCURVE",
"-248 434 OFFCURVE",
"-258 424 CURVE SMOOTH",
"-261 421 OFFCURVE",
"-263 421 OFFCURVE",
"-290 421 CURVE SMOOTH",
"-305 421 OFFCURVE",
"-415 425 OFFCURVE",
"-437 425 CURVE SMOOTH",
"-448 425 OFFCURVE",
"-459 425 OFFCURVE",
"-470 425 CURVE",
"-470 425 OFFCURVE",
"-457 386 OFFCURVE",
"-455 380 CURVE SMOOTH",
"-451 366 OFFCURVE",
"-443 348 OFFCURVE",
"-443 339 CURVE SMOOTH",
"-443 335 OFFCURVE",
"-447 331 OFFCURVE",
"-450 329 CURVE SMOOTH",
"-452 328 OFFCURVE",
"-481 330 OFFCURVE",
"-496 330 CURVE SMOOTH",
"-599 332 OFFCURVE",
"-658 333 OFFCURVE",
"-658 332 CURVE",
"-646 292 LINE SMOOTH",
"-639 271 OFFCURVE",
"-632 251 OFFCURVE",
"-632 250 CURVE SMOOTH",
"-632 247 OFFCURVE",
"-632 246 OFFCURVE",
"-637 243 CURVE SMOOTH",
"-642 240 OFFCURVE",
"-645 240 OFFCURVE",
"-673 240 CURVE SMOOTH",
"-692 240 OFFCURVE",
"-698 238 OFFCURVE",
"-710 245 CURVE SMOOTH"
);
}
);
width = 0;
}
);
unicode = 0061;
},
{
glyphname = f;
lastChange = "2019-03-05 23:01:07 +0000";
layers = (
{
layerId = "30EC318A-0B0E-41B4-91F7-41CEE05FF9CE";
paths = (
{
closed = 1;
nodes = (
"-263 289 OFFCURVE",
"-274 308 OFFCURVE",
"-285 340 CURVE SMOOTH",
"-294 370 OFFCURVE",
"-304 383 OFFCURVE",
"-312 383 CURVE SMOOTH",
"-313 383 OFFCURVE",
"-315 384 OFFCURVE",
"-316 386 CURVE SMOOTH",
"-318 390 OFFCURVE",
"-318 399 OFFCURVE",
"-315 402 CURVE SMOOTH",
"-312 405 OFFCURVE",
"-286 404 OFFCURVE",
"-199 404 CURVE SMOOTH",
"-161 404 OFFCURVE",
"-123 404 OFFCURVE",
"-85 404 CURVE",
"-86 408 OFFCURVE",
"-87 412 OFFCURVE",
"-89 415 CURVE SMOOTH",
"-96 432 OFFCURVE",
"-102 466 OFFCURVE",
"-120 473 CURVE SMOOTH",
"-125 475 OFFCURVE",
"-126 476 OFFCURVE",
"-126 481 CURVE SMOOTH",
"-126 488 OFFCURVE",
"-128 491 OFFCURVE",
"-124 494 CURVE SMOOTH",
"-121 495 OFFCURVE",
"-49 495 OFFCURVE",
"-11 495 CURVE SMOOTH",
"103 495 OFFCURVE",
"159 494 OFFCURVE",
"180 489 CURVE SMOOTH",
"201 484 OFFCURVE",
"214 469 OFFCURVE",
"204 459 CURVE SMOOTH",
"201 456 OFFCURVE",
"199 456 OFFCURVE",
"172 456 CURVE SMOOTH",
"157 456 OFFCURVE",
"47 460 OFFCURVE",
"25 460 CURVE SMOOTH",
"14 460 OFFCURVE",
"3 460 OFFCURVE",
"-8 460 CURVE",
"-8 460 OFFCURVE",
"5 421 OFFCURVE",
"7 415 CURVE SMOOTH",
"11 401 OFFCURVE",
"19 383 OFFCURVE",
"19 374 CURVE SMOOTH",
"19 370 OFFCURVE",
"15 366 OFFCURVE",
"12 364 CURVE SMOOTH",
"10 363 OFFCURVE",
"-19 365 OFFCURVE",
"-34 365 CURVE SMOOTH",
"-137 367 OFFCURVE",
"-196 368 OFFCURVE",
"-196 367 CURVE",
"-184 327 LINE SMOOTH",
"-177 306 OFFCURVE",
"-170 286 OFFCURVE",
"-170 285 CURVE SMOOTH",
"-170 282 OFFCURVE",
"-170 281 OFFCURVE",
"-175 278 CURVE SMOOTH",
"-180 275 OFFCURVE",
"-183 275 OFFCURVE",
"-211 275 CURVE SMOOTH",
"-230 275 OFFCURVE",
"-236 273 OFFCURVE",
"-248 280 CURVE SMOOTH"
);
}
);
width = 0;
}
);
unicode = 0066;
},
{
glyphname = q;
lastChange = "2019-03-05 23:01:07 +0000";
layers = (
{
layerId = "30EC318A-0B0E-41B4-91F7-41CEE05FF9CE";
paths = (
{
closed = 1;
nodes = (
"-727 242 OFFCURVE",
"-737 254 OFFCURVE",
"-745 266 CURVE",
"-749 273 OFFCURVE",
"-754 287 OFFCURVE",
"-759 299 CURVE",
"-765 311 OFFCURVE",
"-771 324 OFFCURVE",
"-772 328 CURVE",
"-777 335 OFFCURVE",
"-779 336 OFFCURVE",
"-790 341 CURVE",
"-791 341 OFFCURVE",
"-793 345 OFFCURVE",
"-794 348 CURVE",
"-795 355 OFFCURVE",
"-795 356 OFFCURVE",
"-793 357 CURVE",
"-791 359 OFFCURVE",
"-789 359 OFFCURVE",
"-668 359 CURVE SMOOTH",
"-544 359 LINE",
"-544 360 OFFCURVE",
"-547 366 OFFCURVE",
"-549 373 CURVE",
"-553 378 OFFCURVE",
"-557 388 OFFCURVE",
"-559 394 CURVE",
"-562 405 OFFCURVE",
"-569 418 OFFCURVE",
"-574 423 CURVE SMOOTH",
"-576 425 OFFCURVE",
"-581 428 OFFCURVE",
"-583 429 CURVE",
"-588 431 OFFCURVE",
"-589 431 OFFCURVE",
"-589 437 CURVE",
"-591 445 OFFCURVE",
"-591 446 OFFCURVE",
"-589 448 CURVE",
"-587 451 OFFCURVE",
"-583 451 OFFCURVE",
"-462 451 CURVE SMOOTH",
"-336 450 LINE",
"-340 458 LINE",
"-342 463 OFFCURVE",
"-347 473 OFFCURVE",
"-349 480 CURVE SMOOTH",
"-356 503 OFFCURVE",
"-366 517 OFFCURVE",
"-372 517 CURVE SMOOTH",
"-375 517 OFFCURVE",
"-377 520 OFFCURVE",
"-379 528 CURVE",
"-381 534 OFFCURVE",
"-381 535 OFFCURVE",
"-378 536 CURVE",
"-376 537 OFFCURVE",
"-350 537 OFFCURVE",
"-248 537 CURVE SMOOTH",
"-120 537 OFFCURVE",
"-81 536 OFFCURVE",
"-67 533 CURVE",
"-53 529 OFFCURVE",
"-44 521 OFFCURVE",
"-43 512 CURVE",
"-42 509 OFFCURVE",
"-43 508 OFFCURVE",
"-46 505 CURVE",
"-49 501 OFFCURVE",
"-49 501 OFFCURVE",
"-74 501 CURVE SMOOTH",
"-89 501 OFFCURVE",
"-136 502 OFFCURVE",
"-180 502 CURVE SMOOTH",
"-232 503 OFFCURVE",
"-258 503 OFFCURVE",
"-258 502 CURVE",
"-245 462 LINE SMOOTH",
"-238 440 OFFCURVE",
"-231 421 OFFCURVE",
"-232 419 CURVE",
"-232 418 OFFCURVE",
"-234 416 OFFCURVE",
"-236 415 CURVE",
"-238 413 OFFCURVE",
"-242 413 OFFCURVE",
"-265 413 CURVE SMOOTH",
"-278 413 OFFCURVE",
"-312 414 OFFCURVE",
"-337 415 CURVE SMOOTH",
"-387 416 OFFCURVE",
"-461 416 OFFCURVE",
"-461 415 CURVE",
"-448 375 LINE SMOOTH",
"-441 353 OFFCURVE",
"-434 334 OFFCURVE",
"-434 332 CURVE SMOOTH",
"-434 331 OFFCURVE",
"-436 328 OFFCURVE",
"-438 326 CURVE",
"-443 322 LINE",
"-497 323 LINE SMOOTH",
"-628 325 OFFCURVE",
"-666 325 OFFCURVE",
"-666 325 CURVE",
"-666 324 OFFCURVE",
"-647 270 OFFCURVE",
"-639 248 CURVE",
"-637 241 LINE",
"-643 238 LINE SMOOTH",
"-649 235 OFFCURVE",
"-650 235 OFFCURVE",
"-681 235 CURVE SMOOTH",
"-710 235 OFFCURVE",
"-712 235 OFFCURVE",
"-718 237 CURVE"
);
}
);
width = 0;
}
);
unicode = 0071;
},
{
glyphname = z;
lastChange = "2019-03-05 23:01:07 +0000";
layers = (
{
layerId = "30EC318A-0B0E-41B4-91F7-41CEE05FF9CE";
paths = (
{
closed = 1;
nodes = (
"-698 294 OFFCURVE",
"-721 324 OFFCURVE",
"-721 329 CURVE SMOOTH",
"-721 336 OFFCURVE",
"-662 340 OFFCURVE",
"-545 340 CURVE SMOOTH",
"-409 340 OFFCURVE",
"-370 337 OFFCURVE",
"-373 327 CURVE",
"-376 319 OFFCURVE",
"-412 313 OFFCURVE",
"-486 310 CURVE SMOOTH",
"-594 305 LINE",
"-566 272 LINE SMOOTH",
"-544 246 OFFCURVE",
"-541 237 OFFCURVE",
"-551 225 CURVE SMOOTH",
"-577 194 OFFCURVE",
"-616 206 OFFCURVE",
"-670 264 CURVE SMOOTH"
);
}
);
width = 0;
}
);
unicode = 007A;
},
{
glyphname = mu;
lastChange = "2019-03-05 23:01:07 +0000";
layers = (
{
layerId = "30EC318A-0B0E-41B4-91F7-41CEE05FF9CE";
paths = (
{
closed = 1;
nodes = (
"-466 484 OFFCURVE",
"-479 506 OFFCURVE",
"-491 544 CURVE SMOOTH",
"-500 572 OFFCURVE",
"-507 582 OFFCURVE",
"-514 585 CURVE SMOOTH",
"-520 589 OFFCURVE",
"-522 594 OFFCURVE",
"-522 602 CURVE SMOOTH",
"-522 603 OFFCURVE",
"-522 606 OFFCURVE",
"-520 606 CURVE SMOOTH",
"-519 606 OFFCURVE",
"-435 607 OFFCURVE",
"-393 607 CURVE SMOOTH",
"-367 607 OFFCURVE",
"-210 607 OFFCURVE",
"-197 599 CURVE SMOOTH",
"-192 596 OFFCURVE",
"-182 589 OFFCURVE",
"-182 579 CURVE SMOOTH",
"-182 561 OFFCURVE",
"-228 567 OFFCURVE",
"-320 569 CURVE SMOOTH",
"-368 570 OFFCURVE",
"-401 571 OFFCURVE",
"-401 569 CURVE",
"-401 570 OFFCURVE",
"-374 479 OFFCURVE",
"-374 478 CURVE SMOOTH",
"-374 473 OFFCURVE",
"-385 471 OFFCURVE",
"-413 471 CURVE SMOOTH",
"-441 471 OFFCURVE",
"-446 473 OFFCURVE",
"-449 475 CURVE SMOOTH"
);
},
{
closed = 1;
nodes = (
"-63 558 LINE SMOOTH",
"-79 563 OFFCURVE",
"-93 570 OFFCURVE",
"-95 574 CURVE SMOOTH",
"-102 584 OFFCURVE",
"-93 592 OFFCURVE",
"-80 603 CURVE SMOOTH",
"-70 612 OFFCURVE",
"-71 614 OFFCURVE",
"-59 614 CURVE SMOOTH",
"-48 614 OFFCURVE",
"-37 611 OFFCURVE",
"-19 603 CURVE SMOOTH",
"-3 596 OFFCURVE",
"-1 596 OFFCURVE",
"3 591 CURVE SMOOTH",
"7 585 OFFCURVE",
"8 585 OFFCURVE",
"7 580 CURVE SMOOTH",
"6 569 OFFCURVE",
"-17 551 OFFCURVE",
"-25 549 CURVE SMOOTH",
"-30 548 OFFCURVE",
"-32 549 OFFCURVE",
"-42 552 CURVE SMOOTH"
);
}
);
width = 0;
}
);
unicode = 03BC;
},
{
glyphname = backslash;
lastChange = "2019-03-05 23:01:07 +0000";
layers = (
{
layerId = "30EC318A-0B0E-41B4-91F7-41CEE05FF9CE";
paths = (
{
closed = 1;
nodes = (
"-1052 639 OFFCURVE",
"-897 820 OFFCURVE",
"-698 820 CURVE SMOOTH",
"-505 820 OFFCURVE",
"-344 640 OFFCURVE",
"-367 448 CURVE",
"-390 617 OFFCURVE",
"-527 738 OFFCURVE",
"-698 738 CURVE SMOOTH",
"-869 738 OFFCURVE",
"-1006 617 OFFCURVE",
"-1029 448 CURVE"
);
},
{
closed = 1;
nodes = (
"-660 468 OFFCURVE",
"-675 448 OFFCURVE",
"-698 448 CURVE SMOOTH",
"-719 448 OFFCURVE",
"-739 466 OFFCURVE",
"-739 489 CURVE SMOOTH",
"-739 512 OFFCURVE",
"-721 528 OFFCURVE",
"-698 528 CURVE SMOOTH",
"-677 528 OFFCURVE",
"-660 512 OFFCURVE",
"-660 489 CURVE SMOOTH"
);
}
);
width = 0;
}
);
unicode = 005C;
},
{
glyphname = comma;
lastChange = "2019-03-05 23:01:07 +0000";
layers = (
{
layerId = "30EC318A-0B0E-41B4-91F7-41CEE05FF9CE";
paths = (
{
closed = 1;
nodes = (
"-528 206 OFFCURVE",
"-567 194 OFFCURVE",
"-593 225 CURVE SMOOTH",
"-603 237 OFFCURVE",
"-600 246 OFFCURVE",
"-578 272 CURVE SMOOTH",
"-550 305 LINE",
"-658 310 LINE SMOOTH",
"-732 313 OFFCURVE",
"-748 319 OFFCURVE",
"-751 327 CURVE SMOOTH",
"-755 337 OFFCURVE",
"-735 340 OFFCURVE",
"-599 340 CURVE SMOOTH",
"-482 340 OFFCURVE",
"-423 336 OFFCURVE",
"-423 329 CURVE SMOOTH",
"-423 324 OFFCURVE",
"-446 294 OFFCURVE",
"-474 264 CURVE SMOOTH"
);
}
);
width = 0;
}
);
unicode = 002C;
},
{
glyphname = period;
lastChange = "2019-03-05 23:01:07 +0000";
layers = (
{
layerId = "30EC318A-0B0E-41B4-91F7-41CEE05FF9CE";
paths = (
{
closed = 1;
nodes = (
"-610 248 OFFCURVE",
"-615 250 OFFCURVE",
"-620 255 CURVE",
"-624 259 OFFCURVE",
"-624 262 OFFCURVE",
"-619 290 CURVE",
"-616 308 OFFCURVE",
"-613 325 OFFCURVE",
"-612 327 CURVE",
"-611 333 LINE",
"-714 334 LINE",
"-814 335 OFFCURVE",
"-817 335 OFFCURVE",
"-823 340 CURVE",
"-831 345 OFFCURVE",
"-831 345 OFFCURVE",
"-821 400 CURVE",
"-814 441 OFFCURVE",
"-813 442 OFFCURVE",
"-805 452 CURVE",
"-792 465 OFFCURVE",
"-784 467 OFFCURVE",
"-754 467 CURVE",
"-728 467 OFFCURVE",
"-727 467 OFFCURVE",
"-722 462 CURVE",
"-715 455 OFFCURVE",
"-715 454 OFFCURVE",
"-725 411 CURVE",
"-728 391 OFFCURVE",
"-731 375 OFFCURVE",
"-731 374 CURVE",
"-731 373 OFFCURVE",
"-679 372 OFFCURVE",
"-614 372 CURVE",
"-496 372 LINE",
"-492 366 LINE",
"-486 358 OFFCURVE",
"-486 353 OFFCURVE",
"-493 345 CURVE",
"-500 338 OFFCURVE",
"-511 315 OFFCURVE",
"-514 294 CURVE",
"-518 269 OFFCURVE",
"-525 261 OFFCURVE",
"-544 250 CURVE",
"-563 242 OFFCURVE",
"-568 241 OFFCURVE",
"-588 245 CURVE"
);
}
);
width = 0;
}
);
unicode = 002E;
},
{
glyphname = slash;
lastChange = "2019-03-05 23:01:07 +0000";
layers = (
{
layerId = "30EC318A-0B0E-41B4-91F7-41CEE05FF9CE";
paths = (
{
closed = 1;
nodes = (
"-553 243 LINE",
"-586 243 LINE",
"-616 243 OFFCURVE",
"-619 243 OFFCURVE",
"-624 246 CURVE",
"-629 249 OFFCURVE",
"-629 250 OFFCURVE",
"-629 253 CURVE",
"-628 254 OFFCURVE",
"-622 275 OFFCURVE",
"-615 297 CURVE",
"-608 320 OFFCURVE",
"-602 338 OFFCURVE",
"-602 339 CURVE",
"-602 340 OFFCURVE",
"-664 339 OFFCURVE",
"-772 337 CURVE",
"-820 336 LINE",
"-824 340 LINE",
"-826 342 OFFCURVE",
"-828 345 OFFCURVE",
"-828 346 CURVE",
"-828 347 OFFCURVE",
"-822 367 OFFCURVE",
"-815 390 CURVE",
"-808 413 OFFCURVE",
"-800 432 OFFCURVE",
"-800 434 CURVE",
"-799 437 LINE",
"-834 437 LINE",
"-854 437 OFFCURVE",
"-889 436 OFFCURVE",
"-914 435 CURVE",
"-938 434 OFFCURVE",
"-970 433 OFFCURVE",
"-988 433 CURVE",
"-1017 433 OFFCURVE",
"-1019 433 OFFCURVE",
"-1022 436 CURVE",
"-1032 446 OFFCURVE",
"-1019 463 OFFCURVE",
"-997 467 CURVE",
"-975 472 OFFCURVE",
"-916 473 OFFCURVE",
"-796 473 CURVE",
"-677 473 LINE",
"-676 470 LINE",
"-674 467 OFFCURVE",
"-674 464 OFFCURVE",
"-675 459 CURVE",
"-676 454 OFFCURVE",
"-677 452 OFFCURVE",
"-682 450 CURVE",
"-686 448 OFFCURVE",
"-691 445 OFFCURVE",
"-692 441 CURVE",
"-696 436 OFFCURVE",
"-703 424 OFFCURVE",
"-706 413 CURVE",
"-708 407 OFFCURVE",
"-711 397 OFFCURVE",
"-714 390 CURVE",
"-719 378 LINE",
"-599 378 LINE",
"-507 378 OFFCURVE",
"-478 378 OFFCURVE",
"-476 377 CURVE",
"-474 373 OFFCURVE",
"-474 363 OFFCURVE",
"-476 359 CURVE",
"-476 357 OFFCURVE",
"-479 356 OFFCURVE",
"-480 356 CURVE",
"-489 356 OFFCURVE",
"-499 342 OFFCURVE",
"-509 311 CURVE",
"-520 277 OFFCURVE",
"-532 258 OFFCURVE",
"-547 248 CURVE"
);
}
);
width = 0;
}
);
unicode = 002F;
},
{
glyphname = less;
lastChange = "2019-03-05 23:01:07 +0000";
layers = (
{
layerId = "30EC318A-0B0E-41B4-91F7-41CEE05FF9CE";
paths = (
{
closed = 1;
nodes = (
"-913 318 LINE SMOOTH",
"-929 323 OFFCURVE",
"-943 330 OFFCURVE",
"-945 334 CURVE SMOOTH",
"-952 344 OFFCURVE",
"-943 352 OFFCURVE",
"-930 363 CURVE SMOOTH",
"-920 372 OFFCURVE",
"-921 374 OFFCURVE",
"-909 374 CURVE SMOOTH",
"-898 374 OFFCURVE",
"-887 371 OFFCURVE",
"-869 363 CURVE SMOOTH",
"-853 356 OFFCURVE",
"-851 356 OFFCURVE",
"-847 351 CURVE SMOOTH",
"-843 345 OFFCURVE",
"-842 345 OFFCURVE",
"-843 340 CURVE SMOOTH",
"-844 329 OFFCURVE",
"-867 311 OFFCURVE",
"-875 309 CURVE SMOOTH",
"-880 308 OFFCURVE",
"-882 309 OFFCURVE",
"-892 312 CURVE SMOOTH"
);
},
{
closed = 1;
nodes = (
"-564 235 OFFCURVE",
"-572 239 OFFCURVE",
"-575 245 CURVE SMOOTH",
"-578 250 OFFCURVE",
"-565 330 OFFCURVE",
"-565 330 CURVE",
"-596 330 OFFCURVE",
"-628 329 OFFCURVE",
"-659 329 CURVE SMOOTH",
"-751 328 OFFCURVE",
"-752 328 OFFCURVE",
"-759 333 CURVE SMOOTH",
"-771 342 OFFCURVE",
"-765 361 OFFCURVE",
"-749 372 CURVE SMOOTH",
"-746 374 OFFCURVE",
"-705 374 OFFCURVE",
"-605 374 CURVE SMOOTH",
"-468 374 OFFCURVE",
"-467 374 OFFCURVE",
"-461 368 CURVE SMOOTH",
"-455 362 OFFCURVE",
"-454 355 OFFCURVE",
"-461 345 CURVE SMOOTH",
"-470 332 OFFCURVE",
"-480 299 OFFCURVE",
"-480 279 CURVE SMOOTH",
"-480 260 OFFCURVE",
"-491 241 OFFCURVE",
"-511 232 CURVE SMOOTH",
"-522 227 OFFCURVE",
"-531 226 OFFCURVE",
"-549 230 CURVE"
);
}
);
width = 0;
}
);
unicode = 003C;
},
{
glyphname = bar;
lastChange = "2019-03-05 23:01:07 +0000";
layers = (
{
layerId = "30EC318A-0B0E-41B4-91F7-41CEE05FF9CE";
paths = (
{
closed = 1;
nodes = (
"-459 575 OFFCURVE",
"-357 698 OFFCURVE",
"-179 768 CURVE SMOOTH",
"-91 803 OFFCURVE",
"6 820 OFFCURVE",
"110 820 CURVE SMOOTH",
"427 820 OFFCURVE",
"691 640 OFFCURVE",
"653 448 CURVE",
"616 617 OFFCURVE",
"390 738 OFFCURVE",
"110 738 CURVE SMOOTH",
"-172 738 OFFCURVE",
"-396 617 OFFCURVE",
"-434 448 CURVE"
);
}
);
width = 0;
}
);
unicode = 007C;
},
{
export = 0;
glyphname = oligon;
lastChange = "2019-03-05 23:01:07 +0000";
layers = (
{
layerId = "30EC318A-0B0E-41B4-91F7-41CEE05FF9CE";
paths = (
{
closed = 1;
nodes = (
"1069 -44 OFFCURVE",
"1036 -33 OFFCURVE",
"1015 -28 CURVE SMOOTH",
"970 -17 OFFCURVE",
"926 -11 OFFCURVE",
"857 -7 CURVE SMOOTH",
"812 -4 OFFCURVE",
"586 -6 OFFCURVE",
"463 -9 CURVE SMOOTH",
"375 -12 OFFCURVE",
"299 -6 OFFCURVE",
"223 7 CURVE SMOOTH",
"109 29 OFFCURVE",
"39 68 OFFCURVE",
"31 118 CURVE SMOOTH",
"28 141 OFFCURVE",
"42 154 OFFCURVE",
"57 145 CURVE SMOOTH",
"85 129 OFFCURVE",
"154 117 OFFCURVE",
"226 108 CURVE SMOOTH",
"276 102 OFFCURVE",
"435 103 OFFCURVE",
"610 107 CURVE SMOOTH",
"774 113 OFFCURVE",
"818 112 OFFCURVE",
"851 107 CURVE SMOOTH",
"939 94 OFFCURVE",
"1014 58 OFFCURVE",
"1081 3 CURVE SMOOTH",
"1106 -18 OFFCURVE",
"1099 -64 OFFCURVE",
"1076 -49 CURVE SMOOTH"
);
}
);
width = 1127;
}
);
},
{
export = 0;
glyphname = jump2;
lastChange = "2019-03-05 23:01:07 +0000";
layers = (
{
layerId = "30EC318A-0B0E-41B4-91F7-41CEE05FF9CE";
paths = (
{
closed = 1;
nodes = (
"1069 -44 OFFCURVE",
"1036 -33 OFFCURVE",
"1015 -28 CURVE SMOOTH",
"970 -17 OFFCURVE",
"926 -11 OFFCURVE",
"857 -7 CURVE SMOOTH",
"812 -4 OFFCURVE",
"586 -6 OFFCURVE",
"463 -9 CURVE SMOOTH",
"375 -12 OFFCURVE",
"299 -6 OFFCURVE",
"223 7 CURVE SMOOTH",
"109 29 OFFCURVE",
"39 68 OFFCURVE",
"31 118 CURVE SMOOTH",
"28 141 OFFCURVE",
"42 154 OFFCURVE",
"57 145 CURVE SMOOTH",
"85 129 OFFCURVE",
"154 117 OFFCURVE",
"226 108 CURVE SMOOTH",
"276 102 OFFCURVE",
"435 103 OFFCURVE",
"610 107 CURVE SMOOTH",
"774 113 OFFCURVE",
"818 112 OFFCURVE",
"851 107 CURVE SMOOTH",
"939 94 OFFCURVE",
"1014 58 OFFCURVE",
"1081 3 CURVE SMOOTH",
"1106 -18 OFFCURVE",
"1099 -64 OFFCURVE",
"1076 -49 CURVE SMOOTH"
);
},
{
closed = 1;
nodes = (
"595 189 OFFCURVE",
"578 213 OFFCURVE",
"562 266 CURVE SMOOTH",
"539 341 OFFCURVE",
"533 353 OFFCURVE",
"516 359 CURVE SMOOTH",
"505 363 OFFCURVE",
"499 370 OFFCURVE",
"501 374 CURVE SMOOTH",
"507 387 OFFCURVE",
"545 392 OFFCURVE",
"591 386 CURVE SMOOTH",
"643 379 OFFCURVE",
"658 364 OFFCURVE",
"679 293 CURVE SMOOTH",
"701 219 OFFCURVE",
"708 208 OFFCURVE",
"722 203 CURVE SMOOTH",
"737 198 OFFCURVE",
"739 183 OFFCURVE",
"723 176 CURVE SMOOTH",
"709 170 OFFCURVE",
"653 171 OFFCURVE",
"627 179 CURVE SMOOTH"
);
},
{
closed = 1;
nodes = (
"395 189 OFFCURVE",
"378 213 OFFCURVE",
"362 266 CURVE SMOOTH",
"339 341 OFFCURVE",
"333 353 OFFCURVE",
"316 359 CURVE SMOOTH",
"305 363 OFFCURVE",
"299 370 OFFCURVE",
"301 374 CURVE SMOOTH",
"307 387 OFFCURVE",
"345 392 OFFCURVE",
"391 386 CURVE SMOOTH",
"443 379 OFFCURVE",
"458 364 OFFCURVE",
"479 293 CURVE SMOOTH",
"501 219 OFFCURVE",
"508 208 OFFCURVE",
"522 203 CURVE SMOOTH",
"537 198 OFFCURVE",
"539 183 OFFCURVE",
"523 176 CURVE SMOOTH",
"509 170 OFFCURVE",
"453 171 OFFCURVE",
"427 179 CURVE SMOOTH"
);
}
);
width = 1127;
}
);
},
{
export = 0;
glyphname = yporroi;
lastChange = "2019-03-05 23:01:07 +0000";
layers = (
{
layerId = "30EC318A-0B0E-41B4-91F7-41CEE05FF9CE";
paths = (
{
closed = 1;
nodes = (
"55 -57 OFFCURVE",
"43 -46 OFFCURVE",
"41 -37 CURVE SMOOTH",
"38 -24 OFFCURVE",
"45 -20 OFFCURVE",
"72 -20 CURVE SMOOTH",
"122 -20 OFFCURVE",
"130 -5 OFFCURVE",
"123 81 CURVE SMOOTH",
"115 177 OFFCURVE",
"120 182 OFFCURVE",
"225 178 CURVE SMOOTH",
"291 175 OFFCURVE",
"304 172 OFFCURVE",
"307 157 CURVE SMOOTH",
"310 144 OFFCURVE",
"304 140 OFFCURVE",
"279 140 CURVE SMOOTH",
"235 140 OFFCURVE",
"249 124 OFFCURVE",
"254 56 CURVE SMOOTH",
"260 -21 OFFCURVE",
"259 -30 OFFCURVE",
"240 -49 CURVE SMOOTH",
"223 -66 OFFCURVE",
"207 -70 OFFCURVE",
"157 -69 CURVE SMOOTH",
"122 -68 OFFCURVE",
"83 -65 OFFCURVE",
"69 -61 CURVE SMOOTH"
);
}
);
width = 388;
}
);
},
{
export = 0;
glyphname = anoone;
lastChange = "2019-03-05 23:01:07 +0000";
layers = (
{
layerId = "30EC318A-0B0E-41B4-91F7-41CEE05FF9CE";
paths = (
{
closed = 1;
nodes = (
"271 211 OFFCURVE",
"286 237 OFFCURVE",
"338 247 CURVE SMOOTH",
"389 257 OFFCURVE",
"397 276 OFFCURVE",
"365 309 CURVE SMOOTH",
"338 337 OFFCURVE",
"278 350 OFFCURVE",
"156 356 CURVE SMOOTH",
"42 362 OFFCURVE",
"20 372 OFFCURVE",
"34 409 CURVE SMOOTH",
"53 459 OFFCURVE",
"480 377 OFFCURVE",
"556 309 CURVE SMOOTH",
"606 263 OFFCURVE",
"587 228 OFFCURVE",
"498 201 CURVE SMOOTH",
"441 184 OFFCURVE",
"344 182 OFFCURVE",
"309 196 CURVE SMOOTH"
);
},
{
closed = 1;
nodes = (
"971 189 OFFCURVE",
"954 213 OFFCURVE",
"938 266 CURVE SMOOTH",
"915 341 OFFCURVE",
"909 353 OFFCURVE",
"892 359 CURVE SMOOTH",
"881 363 OFFCURVE",
"875 370 OFFCURVE",
"877 374 CURVE SMOOTH",
"883 387 OFFCURVE",
"921 392 OFFCURVE",
"967 386 CURVE SMOOTH",
"1019 379 OFFCURVE",
"1034 364 OFFCURVE",
"1055 293 CURVE SMOOTH",
"1077 219 OFFCURVE",
"1084 208 OFFCURVE",
"1098 203 CURVE SMOOTH",
"1113 198 OFFCURVE",
"1115 183 OFFCURVE",
"1099 176 CURVE SMOOTH",
"1085 170 OFFCURVE",
"1029 171 OFFCURVE",
"1003 179 CURVE SMOOTH"
);
},
{
closed = 1;
nodes = (
"771 189 OFFCURVE",
"754 213 OFFCURVE",
"738 266 CURVE SMOOTH",
"715 341 OFFCURVE",
"709 353 OFFCURVE",
"692 359 CURVE SMOOTH",
"681 363 OFFCURVE",
"675 370 OFFCURVE",
"677 374 CURVE SMOOTH",
"683 387 OFFCURVE",
"721 392 OFFCURVE",
"767 386 CURVE SMOOTH",
"819 379 OFFCURVE",
"834 364 OFFCURVE",
"855 293 CURVE SMOOTH",
"877 219 OFFCURVE",
"884 208 OFFCURVE",
"898 203 CURVE SMOOTH",
"913 198 OFFCURVE",
"915 183 OFFCURVE",
"899 176 CURVE SMOOTH",
"885 170 OFFCURVE",
"829 171 OFFCURVE",
"803 179 CURVE SMOOTH"
);
},
{
closed = 1;
nodes = (
"1205 -44 OFFCURVE",
"1172 -33 OFFCURVE",
"1151 -28 CURVE SMOOTH",
"1106 -17 OFFCURVE",
"1062 -12 OFFCURVE",
"993 -7 CURVE SMOOTH",
"948 -4 OFFCURVE",
"592 -6 OFFCURVE",
"469 -9 CURVE SMOOTH",
"381 -11 OFFCURVE",
"305 -6 OFFCURVE",
"229 7 CURVE SMOOTH",
"115 27 OFFCURVE",
"46 68 OFFCURVE",
"37 118 CURVE SMOOTH",
"33 141 OFFCURVE",
"48 154 OFFCURVE",
"63 145 CURVE SMOOTH",
"91 128 OFFCURVE",
"160 117 OFFCURVE",
"232 108 CURVE SMOOTH",
"282 102 OFFCURVE",
"441 103 OFFCURVE",
"616 107 CURVE SMOOTH",
"780 111 OFFCURVE",
"954 112 OFFCURVE",
"987 107 CURVE SMOOTH",
"1075 94 OFFCURVE",
"1151 59 OFFCURVE",
"1217 3 CURVE SMOOTH",
"1242 -18 OFFCURVE",
"1234 -65 OFFCURVE",
"1212 -49 CURVE SMOOTH"
);
}
);
width = 1262;
}
);
},
{
export = 0;
glyphname = apostrophos;
lastChange = "2019-03-05 23:01:07 +0000";
layers = (
{
layerId = "30EC318A-0B0E-41B4-91F7-41CEE05FF9CE";
paths = (
{
closed = 1;
nodes = (
"284 -34 OFFCURVE",
"299 -6 OFFCURVE",
"354 4 CURVE SMOOTH",
"407 13 OFFCURVE",
"416 35 OFFCURVE",
"382 69 CURVE SMOOTH",
"353 98 OFFCURVE",
"291 112 OFFCURVE",
"162 119 CURVE SMOOTH",
"43 125 OFFCURVE",
"19 135 OFFCURVE",
"34 174 CURVE SMOOTH",
"55 227 OFFCURVE",
"504 142 OFFCURVE",
"582 69 CURVE SMOOTH",
"635 20 OFFCURVE",
"615 -16 OFFCURVE",
"522 -44 CURVE SMOOTH",
"462 -61 OFFCURVE",
"360 -64 OFFCURVE",
"323 -49 CURVE SMOOTH"
);
}
);
width = 641;
}
);
},
{
export = 0;
glyphname = another;
lastChange = "2019-03-05 23:01:07 +0000";
layers = (
{
layerId = "30EC318A-0B0E-41B4-91F7-41CEE05FF9CE";
paths = (
{
closed = 1;
nodes = (
"965 189 OFFCURVE",
"948 213 OFFCURVE",
"932 266 CURVE SMOOTH",
"909 341 OFFCURVE",
"903 353 OFFCURVE",
"886 359 CURVE SMOOTH",
"875 363 OFFCURVE",
"869 370 OFFCURVE",
"871 374 CURVE SMOOTH",
"877 387 OFFCURVE",
"915 392 OFFCURVE",
"961 386 CURVE SMOOTH",
"1013 379 OFFCURVE",
"1028 364 OFFCURVE",
"1049 293 CURVE SMOOTH",
"1071 219 OFFCURVE",
"1078 208 OFFCURVE",
"1092 203 CURVE SMOOTH",
"1107 198 OFFCURVE",
"1109 183 OFFCURVE",
"1093 176 CURVE SMOOTH",
"1079 170 OFFCURVE",
"1023 171 OFFCURVE",
"997 179 CURVE SMOOTH"
);
},
{
closed = 1;
nodes = (
"765 189 OFFCURVE",
"748 213 OFFCURVE",
"732 266 CURVE SMOOTH",
"709 341 OFFCURVE",
"703 353 OFFCURVE",
"686 359 CURVE SMOOTH",
"675 363 OFFCURVE",
"669 370 OFFCURVE",
"671 374 CURVE SMOOTH",
"677 387 OFFCURVE",
"715 392 OFFCURVE",
"761 386 CURVE SMOOTH",
"813 379 OFFCURVE",
"828 364 OFFCURVE",
"849 293 CURVE SMOOTH",
"871 219 OFFCURVE",
"878 208 OFFCURVE",
"892 203 CURVE SMOOTH",
"907 198 OFFCURVE",
"909 183 OFFCURVE",
"893 176 CURVE SMOOTH",
"879 170 OFFCURVE",
"823 171 OFFCURVE",
"797 179 CURVE SMOOTH"
);
},
{
closed = 1;
nodes = (
"1199 -44 OFFCURVE",
"1166 -33 OFFCURVE",
"1145 -28 CURVE SMOOTH",
"1100 -17 OFFCURVE",
"1056 -12 OFFCURVE",
"987 -7 CURVE SMOOTH",
"942 -4 OFFCURVE",
"586 -6 OFFCURVE",
"463 -9 CURVE SMOOTH",
"375 -11 OFFCURVE",
"299 -6 OFFCURVE",
"223 7 CURVE SMOOTH",
"109 27 OFFCURVE",
"40 68 OFFCURVE",
"31 118 CURVE SMOOTH",
"27 141 OFFCURVE",
"42 154 OFFCURVE",
"57 145 CURVE SMOOTH",
"85 128 OFFCURVE",
"154 117 OFFCURVE",
"226 108 CURVE SMOOTH",
"276 102 OFFCURVE",
"435 103 OFFCURVE",
"610 107 CURVE SMOOTH",
"774 111 OFFCURVE",
"948 112 OFFCURVE",
"981 107 CURVE SMOOTH",
"1069 94 OFFCURVE",
"1145 59 OFFCURVE",
"1211 3 CURVE SMOOTH",
"1236 -18 OFFCURVE",
"1228 -65 OFFCURVE",
"1206 -49 CURVE SMOOTH"
);
},
{
closed = 1;
nodes = (
"229 183 OFFCURVE",
"217 194 OFFCURVE",
"215 203 CURVE SMOOTH",
"212 216 OFFCURVE",
"219 220 OFFCURVE",
"246 220 CURVE SMOOTH",
"296 220 OFFCURVE",
"304 235 OFFCURVE",
"297 321 CURVE SMOOTH",
"289 417 OFFCURVE",
"294 423 OFFCURVE",
"399 418 CURVE SMOOTH",
"465 415 OFFCURVE",
"478 412 OFFCURVE",
"481 397 CURVE SMOOTH",
"484 384 OFFCURVE",
"478 380 OFFCURVE",
"453 380 CURVE SMOOTH",
"409 380 OFFCURVE",
"423 364 OFFCURVE",
"428 296 CURVE SMOOTH",
"434 219 OFFCURVE",
"433 210 OFFCURVE",
"414 191 CURVE SMOOTH",
"397 174 OFFCURVE",
"381 170 OFFCURVE",
"331 171 CURVE SMOOTH",
"296 172 OFFCURVE",
"257 175 OFFCURVE",
"243 179 CURVE SMOOTH"
);
}
);
width = 1256;
}
);
},
{
export = 0;
glyphname = kentimata;
lastChange = "2019-03-05 23:01:07 +0000";
layers = (
{
layerId = "30EC318A-0B0E-41B4-91F7-41CEE05FF9CE";
paths = (
{
closed = 1;
nodes = (
"325 -51 OFFCURVE",
"308 -27 OFFCURVE",
"292 26 CURVE SMOOTH",
"269 101 OFFCURVE",
"263 113 OFFCURVE",
"246 119 CURVE SMOOTH",
"235 123 OFFCURVE",
"229 130 OFFCURVE",
"231 134 CURVE SMOOTH",
"237 147 OFFCURVE",
"275 152 OFFCURVE",
"321 146 CURVE SMOOTH",
"373 138 OFFCURVE",
"388 124 OFFCURVE",
"409 53 CURVE SMOOTH",
"432 -21 OFFCURVE",
"438 -32 OFFCURVE",
"452 -37 CURVE SMOOTH",
"467 -42 OFFCURVE",
"469 -57 OFFCURVE",
"453 -64 CURVE SMOOTH",
"439 -70 OFFCURVE",
"383 -69 OFFCURVE",
"357 -61 CURVE SMOOTH"
);
},
{
closed = 1;
nodes = (
"125 -51 OFFCURVE",
"108 -27 OFFCURVE",
"92 26 CURVE SMOOTH",
"69 101 OFFCURVE",
"63 113 OFFCURVE",
"46 119 CURVE SMOOTH",
"35 123 OFFCURVE",
"29 130 OFFCURVE",
"31 134 CURVE SMOOTH",
"37 147 OFFCURVE",
"75 152 OFFCURVE",
"121 146 CURVE SMOOTH",
"173 139 OFFCURVE",
"188 124 OFFCURVE",
"209 53 CURVE SMOOTH",
"231 -21 OFFCURVE",
"238 -32 OFFCURVE",
"252 -37 CURVE SMOOTH",
"267 -42 OFFCURVE",
"269 -57 OFFCURVE",
"253 -64 CURVE SMOOTH",
"239 -70 OFFCURVE",
"183 -69 OFFCURVE",
"157 -61 CURVE SMOOTH"
);
}
);
width = 494;
}
);
},
{
export = 0;
glyphname = anonew;
lastChange = "2019-03-05 23:01:07 +0000";
layers = (
{
layerId = "30EC318A-0B0E-41B4-91F7-41CEE05FF9CE";
paths = (
{
closed = 1;
nodes = (
"1116 -6 OFFCURVE",
"1000 1 OFFCURVE",
"663 -2 CURVE",
"306 -4 OFFCURVE",
"238 2 OFFCURVE",
"148 41 CURVE",
"90 67 OFFCURVE",
"58 97 OFFCURVE",
"58 127 CURVE",
"58 154 OFFCURVE",
"59 155 OFFCURVE",
"123 133 CURVE",
"167 118 OFFCURVE",
"227 115 OFFCURVE",
"599 113 CURVE",
"1000 111 OFFCURVE",
"1029 110 OFFCURVE",
"1084 91 CURVE",
"1162 63 OFFCURVE",
"1248 5 OFFCURVE",
"1248 -20 CURVE",
"1248 -46 OFFCURVE",
"1239 -48 OFFCURVE",
"1193 -33 CURVE"
);
},
{
closed = 1;
nodes = (
"615 199 OFFCURVE",
"558 202 OFFCURVE",
"408 201 CURVE",
"233 200 OFFCURVE",
"207 202 OFFCURVE",
"157 221 CURVE",
"81 249 OFFCURVE",
"39 286 OFFCURVE",
"32 331 CURVE",
"24 376 OFFCURVE",
"42 394 OFFCURVE",
"110 415 CURVE",
"155 428 OFFCURVE",
"168 428 OFFCURVE",
"227 414 CURVE",
"300 397 OFFCURVE",
"338 377 OFFCURVE",
"338 354 CURVE",
"338 330 OFFCURVE",
"309 326 OFFCURVE",
"271 344 CURVE",
"239 359 OFFCURVE",
"234 359 OFFCURVE",
"212 345 CURVE",
"183 326 OFFCURVE",
"181 295 OFFCURVE",
"207 280 CURVE",
"219 274 OFFCURVE",
"278 272 OFFCURVE",
"365 276 CURVE",
"575 285 OFFCURVE",
"723 251 OFFCURVE",
"723 195 CURVE",
"723 170 OFFCURVE",
"712 169 OFFCURVE",
"653 187 CURVE"
);
},
{
closed = 1;
nodes = (
"837 205 OFFCURVE",
"822 233 OFFCURVE",
"812 268 CURVE",
"803 299 OFFCURVE",
"787 333 OFFCURVE",
"776 342 CURVE",
"765 352 OFFCURVE",
"760 365 OFFCURVE",
"764 371 CURVE",
"773 386 OFFCURVE",
"871 378 OFFCURVE",
"892 361 CURVE",
"901 353 OFFCURVE",
"917 316 OFFCURVE",
"929 278 CURVE",
"940 240 OFFCURVE",
"956 206 OFFCURVE",
"964 203 CURVE",
"994 192 OFFCURVE",
"976 180 OFFCURVE",
"925 180 CURVE",
"894 180 OFFCURVE",
"864 186 OFFCURVE",
"850 195 CURVE"
);
},
{
closed = 1;
nodes = (
"1027 196 OFFCURVE",
"1012 221 OFFCURVE",
"1003 248 CURVE",
"993 274 OFFCURVE",
"981 307 OFFCURVE",
"976 322 CURVE",
"970 338 OFFCURVE",
"959 350 OFFCURVE",
"951 350 CURVE",
"943 350 OFFCURVE",
"938 356 OFFCURVE",
"940 362 CURVE",
"946 380 OFFCURVE",
"1027 383 OFFCURVE",
"1058 367 CURVE",
"1075 358 OFFCURVE",
"1090 335 OFFCURVE",
"1106 290 CURVE",
"1119 254 OFFCURVE",
"1136 218 OFFCURVE",
"1144 209 CURVE",
"1151 201 OFFCURVE",
"1158 190 OFFCURVE",
"1158 187 CURVE",
"1158 176 OFFCURVE",
"1055 179 OFFCURVE",
"1036 190 CURVE"
);
},
{
closed = 1;
nodes = (
"811 506 OFFCURVE",
"788 536 OFFCURVE",
"788 541 CURVE",
"788 546 OFFCURVE",
"867 550 OFFCURVE",
"973 550 CURVE",
"1129 550 OFFCURVE",
"1158 548 OFFCURVE",
"1158 535 CURVE",
"1158 523 OFFCURVE",
"1135 520 OFFCURVE",
"1037 518 CURVE",
"915 515 LINE",
"943 482 LINE",
"965 456 OFFCURVE",
"968 447 OFFCURVE",
"958 435 CURVE",
"932 404 OFFCURVE",
"893 417 OFFCURVE",
"839 476 CURVE"
);
},
{
closed = 1;
nodes = (
"811 506 OFFCURVE",
"788 536 OFFCURVE",
"788 541 CURVE",
"788 546 OFFCURVE",
"867 550 OFFCURVE",
"973 550 CURVE",
"1129 550 OFFCURVE",
"1158 548 OFFCURVE",
"1158 535 CURVE",
"1158 523 OFFCURVE",
"1135 520 OFFCURVE",
"1037 518 CURVE",
"915 515 LINE",
"943 482 LINE",
"965 456 OFFCURVE",
"968 447 OFFCURVE",
"958 435 CURVE",
"932 404 OFFCURVE",
"893 417 OFFCURVE",
"839 476 CURVE"
);
}
);
width = 1278;
}
);
},
{
export = 0;
glyphname = temp;
lastChange = "2019-03-05 23:01:07 +0000";
layers = (
{
layerId = "30EC318A-0B0E-41B4-91F7-41CEE05FF9CE";
paths = (
{
closed = 1;
nodes = (
"-211 -96 OFFCURVE",
"-222 -77 OFFCURVE",
"-233 -45 CURVE SMOOTH",
"-242 -15 OFFCURVE",
"-252 -2 OFFCURVE",
"-260 -2 CURVE SMOOTH",
"-261 -2 OFFCURVE",
"-263 -1 OFFCURVE",
"-264 1 CURVE SMOOTH",
"-266 5 OFFCURVE",
"-266 14 OFFCURVE",
"-263 17 CURVE SMOOTH",
"-260 20 OFFCURVE",
"-234 19 OFFCURVE",
"-147 19 CURVE SMOOTH",
"-109 19 OFFCURVE",
"-71 19 OFFCURVE",
"-33 19 CURVE",
"-34 23 OFFCURVE",
"-35 27 OFFCURVE",
"-37 30 CURVE SMOOTH",
"-44 47 OFFCURVE",
"-50 81 OFFCURVE",
"-68 88 CURVE SMOOTH",
"-73 90 OFFCURVE",
"-74 91 OFFCURVE",
"-74 96 CURVE SMOOTH",
"-74 103 OFFCURVE",
"-76 106 OFFCURVE",
"-72 109 CURVE SMOOTH",
"-69 110 OFFCURVE",
"3 110 OFFCURVE",
"41 110 CURVE SMOOTH",
"155 110 OFFCURVE",
"211 109 OFFCURVE",
"232 104 CURVE SMOOTH",
"253 99 OFFCURVE",
"266 84 OFFCURVE",
"256 74 CURVE SMOOTH",
"253 71 OFFCURVE",
"251 71 OFFCURVE",
"224 71 CURVE SMOOTH",
"209 71 OFFCURVE",
"99 75 OFFCURVE",
"77 75 CURVE SMOOTH",
"66 75 OFFCURVE",
"55 75 OFFCURVE",
"44 75 CURVE",
"44 75 OFFCURVE",
"57 36 OFFCURVE",
"59 30 CURVE SMOOTH",
"63 16 OFFCURVE",
"71 -2 OFFCURVE",
"71 -11 CURVE SMOOTH",
"71 -15 OFFCURVE",
"67 -19 OFFCURVE",
"64 -21 CURVE SMOOTH",
"62 -22 OFFCURVE",
"33 -20 OFFCURVE",
"18 -20 CURVE SMOOTH",
"-85 -18 OFFCURVE",
"-144 -17 OFFCURVE",
"-144 -18 CURVE",
"-132 -58 LINE SMOOTH",
"-125 -79 OFFCURVE",
"-118 -99 OFFCURVE",
"-118 -100 CURVE SMOOTH",
"-118 -103 OFFCURVE",
"-118 -104 OFFCURVE",
"-123 -107 CURVE SMOOTH",
"-128 -110 OFFCURVE",
"-131 -110 OFFCURVE",
"-159 -110 CURVE SMOOTH",
"-178 -110 OFFCURVE",
"-184 -112 OFFCURVE",
"-196 -105 CURVE SMOOTH"
);
}
);
width = 0;
}
);
},
{
export = 0;
glyphname = newGlyph;
lastChange = "2019-03-05 23:01:07 +0000";
layers = (
{
layerId = "30EC318A-0B0E-41B4-91F7-41CEE05FF9CE";
paths = (
{
closed = 1;
nodes = (
"49 235 OFFCURVE",
"41 239 OFFCURVE",
"38 245 CURVE SMOOTH",
"35 250 OFFCURVE",
"48 330 OFFCURVE",
"48 330 CURVE",
"17 330 OFFCURVE",
"-15 329 OFFCURVE",
"-46 329 CURVE SMOOTH",
"-138 328 OFFCURVE",
"-139 328 OFFCURVE",
"-146 333 CURVE SMOOTH",
"-158 342 OFFCURVE",
"-152 361 OFFCURVE",
"-136 372 CURVE SMOOTH",
"-133 374 OFFCURVE",
"-92 374 OFFCURVE",
"8 374 CURVE SMOOTH",
"145 374 OFFCURVE",
"146 374 OFFCURVE",
"152 368 CURVE SMOOTH",
"158 362 OFFCURVE",
"159 355 OFFCURVE",
"152 345 CURVE SMOOTH",
"143 332 OFFCURVE",
"133 299 OFFCURVE",
"133 279 CURVE SMOOTH",
"133 260 OFFCURVE",
"122 241 OFFCURVE",
"102 232 CURVE SMOOTH",
"91 227 OFFCURVE",
"82 226 OFFCURVE",
"64 230 CURVE"
);
}
);
width = 600;
}
);
},
{
export = 0;
glyphname = newGlyph.003;
lastChange = "2019-03-05 23:01:07 +0000";
layers = (
{
layerId = "30EC318A-0B0E-41B4-91F7-41CEE05FF9CE";
paths = (
{
closed = 1;
nodes = (
"1085 -214 OFFCURVE",
"1068 -205 OFFCURVE",
"1064 -198 CURVE",
"1053 -181 OFFCURVE",
"1090 -160 OFFCURVE",
"1132 -160 CURVE SMOOTH",
"1166 -160 OFFCURVE",
"1170 -157 OFFCURVE",
"1170 -135 CURVE SMOOTH",
"1170 -75 OFFCURVE",
"1104 -50 OFFCURVE",
"926 -41 CURVE SMOOTH",
"802 -35 OFFCURVE",
"778 -25 OFFCURVE",
"793 14 CURVE SMOOTH",
"813 67 OFFCURVE",
"1264 -14 OFFCURVE",
"1350 -86 CURVE SMOOTH",
"1387 -118 OFFCURVE",
"1391 -162 OFFCURVE",
"1358 -184 CURVE SMOOTH",
"1326 -204 OFFCURVE",
"1220 -230 OFFCURVE",
"1174 -229 CURVE SMOOTH",
"1152 -229 OFFCURVE",
"1121 -224 OFFCURVE",
"1103 -219 CURVE SMOOTH"
);
},
{
closed = 1;
nodes = (
"325 -54 OFFCURVE",
"308 -45 OFFCURVE",
"304 -38 CURVE",
"293 -21 OFFCURVE",
"330 0 OFFCURVE",
"372 0 CURVE SMOOTH",
"404 0 OFFCURVE",
"410 3 OFFCURVE",
"410 21 CURVE SMOOTH",
"410 83 OFFCURVE",
"342 111 OFFCURVE",
"166 119 CURVE SMOOTH",
"41 125 OFFCURVE",
"18 135 OFFCURVE",
"34 175 CURVE SMOOTH",
"40 191 OFFCURVE",
"51 192 OFFCURVE",
"148 187 CURVE SMOOTH",
"252 181 OFFCURVE",
"420 148 OFFCURVE",
"509 116 CURVE SMOOTH",
"578 91 OFFCURVE",
"620 54 OFFCURVE",
"620 20 CURVE SMOOTH",
"620 -17 OFFCURVE",
"596 -33 OFFCURVE",
"514 -54 CURVE SMOOTH",
"446 -72 OFFCURVE",
"392 -73 OFFCURVE",
"343 -59 CURVE SMOOTH"
);
}
);
width = 1410;
}
);
},
{
export = 0;
glyphname = stacked;
lastChange = "2019-03-05 23:01:07 +0000";
layers = (
{
layerId = "30EC318A-0B0E-41B4-91F7-41CEE05FF9CE";
paths = (
{
closed = 1;
nodes = (
"969 -2 OFFCURVE",
"893 4 OFFCURVE",
"597 -3 CURVE SMOOTH",
"279 -11 OFFCURVE",
"247 -8 OFFCURVE",
"122 48 CURVE SMOOTH",
"43 83 OFFCURVE",
"30 97 OFFCURVE",
"30 149 CURVE SMOOTH",
"30 192 OFFCURVE",
"31 194 OFFCURVE",
"77 214 CURVE SMOOTH",
"137 240 OFFCURVE",
"189 240 OFFCURVE",
"263 212 CURVE SMOOTH",
"326 188 OFFCURVE",
"349 162 OFFCURVE",
"325 142 CURVE SMOOTH",
"313 132 OFFCURVE",
"302 134 OFFCURVE",
"270 150 CURVE SMOOTH",
"230 169 OFFCURVE",
"230 169 OFFCURVE",
"205 150 CURVE SMOOTH",
"175 127 OFFCURVE",
"174 111 OFFCURVE",
"199 88 CURVE SMOOTH",
"218 71 OFFCURVE",
"228 71 OFFCURVE",
"397 86 CURVE SMOOTH",
"728 116 OFFCURVE",
"933 103 OFFCURVE",
"1031 46 CURVE SMOOTH",
"1086 14 OFFCURVE",
"1084 -62 OFFCURVE",
"1030 -33 CURVE SMOOTH"
);
},
{
closed = 1;
nodes = (
"1024 -293 OFFCURVE",
"1039 -266 OFFCURVE",
"1094 -256 CURVE SMOOTH",
"1147 -246 OFFCURVE",
"1156 -225 OFFCURVE",
"1122 -191 CURVE SMOOTH",
"1093 -162 OFFCURVE",
"1031 -148 OFFCURVE",
"902 -141 CURVE SMOOTH",
"783 -135 OFFCURVE",
"759 -125 OFFCURVE",
"774 -86 CURVE SMOOTH",
"794 -33 OFFCURVE",
"1244 -118 OFFCURVE",
"1322 -191 CURVE SMOOTH",
"1375 -240 OFFCURVE",
"1355 -276 OFFCURVE",
"1262 -304 CURVE SMOOTH",
"1202 -322 OFFCURVE",
"1100 -324 OFFCURVE",
"1063 -309 CURVE SMOOTH"
);
}
);
width = 1381;
}
);
},
{
export = 0;
glyphname = petaste;
lastChange = "2019-03-05 23:01:07 +0000";
layers = (
{
layerId = "30EC318A-0B0E-41B4-91F7-41CEE05FF9CE";
paths = (
{
closed = 1;
nodes = (
"363 -64 OFFCURVE",
"189 -30 OFFCURVE",
"105 15 CURVE",
"52 45 OFFCURVE",
"30 74 OFFCURVE",
"30 121 CURVE",
"30 161 OFFCURVE",
"37 165 OFFCURVE",
"112 178 CURVE",
"156 184 OFFCURVE",
"300 174 OFFCURVE",
"333 161 CURVE",
"359 152 OFFCURVE",
"355 135 OFFCURVE",
"326 130 CURVE",
"312 129 OFFCURVE",
"290 125 OFFCURVE",
"277 123 CURVE",
"223 115 OFFCURVE",
"227 80 OFFCURVE",
"283 43 CURVE",
"354 -3 OFFCURVE",
"445 -27 OFFCURVE",
"587 -34 CURVE",
"735 -42 OFFCURVE",
"866 -19 OFFCURVE",
"907 20 CURVE",
"953 66 OFFCURVE",
"913 112 OFFCURVE",
"805 134 CURVE",
"767 142 OFFCURVE",
"760 148 OFFCURVE",
"767 164 CURVE",
"774 183 OFFCURVE",
"788 184 OFFCURVE",
"871 169 CURVE",
"1011 145 OFFCURVE",
"1091 112 OFFCURVE",
"1101 74 CURVE",
"1103 64 OFFCURVE",
"1102 45 OFFCURVE",
"1097 30 CURVE",
"1090 12 OFFCURVE",
"1080 2 OFFCURVE",
"1055 -11 CURVE",
"1012 -32 OFFCURVE",
"925 -55 OFFCURVE",
"808 -73 CURVE",
"710 -87 OFFCURVE",
"712 -87 OFFCURVE",
"574 -79 CURVE"
);
},
{
closed = 1;
nodes = (
"465 68 OFFCURVE",
"443 78 OFFCURVE",
"443 91 CURVE",
"443 103 OFFCURVE",
"447 105 OFFCURVE",
"471 105 CURVE",
"504 105 OFFCURVE",
"529 123 OFFCURVE",
"529 148 CURVE",
"529 158 OFFCURVE",
"528 192 OFFCURVE",
"524 223 CURVE",
"518 298 OFFCURVE",
"526 306 OFFCURVE",
"606 310 CURVE",
"673 313 OFFCURVE",
"710 305 OFFCURVE",
"710 286 CURVE",
"710 275 OFFCURVE",
"704 271 OFFCURVE",
"682 270 CURVE",
"666 268 OFFCURVE",
"655 264 OFFCURVE",
"651 256 CURVE",
"649 251 OFFCURVE",
"651 224 OFFCURVE",
"655 195 CURVE",
"676 90 OFFCURVE",
"651 54 OFFCURVE",
"561 57 CURVE",
"541 58 OFFCURVE",
"517 59 OFFCURVE",
"507 60 CURVE"
);
},
{
closed = 1;
nodes = (
"509 458 OFFCURVE",
"485 488 OFFCURVE",
"485 497 CURVE",
"485 501 OFFCURVE",
"571 503 OFFCURVE",
"674 503 CURVE",
"850 503 OFFCURVE",
"864 503 OFFCURVE",
"861 490 CURVE",
"858 479 OFFCURVE",
"847 478 OFFCURVE",
"739 477 CURVE",
"671 476 OFFCURVE",
"621 472 OFFCURVE",
"621 468 CURVE",
"621 464 OFFCURVE",
"630 450 OFFCURVE",
"642 437 CURVE",
"676 398 OFFCURVE",
"667 376 OFFCURVE",
"617 376 CURVE",
"591 376 OFFCURVE",
"584 380 OFFCURVE",
"549 416 CURVE"
);
},
{
closed = 1;
nodes = (
"509 458 OFFCURVE",
"485 488 OFFCURVE",
"485 497 CURVE",
"485 501 OFFCURVE",
"571 503 OFFCURVE",
"674 503 CURVE",
"850 503 OFFCURVE",
"864 503 OFFCURVE",
"861 490 CURVE",
"858 479 OFFCURVE",
"847 478 OFFCURVE",
"739 477 CURVE",
"671 476 OFFCURVE",
"621 472 OFFCURVE",
"621 468 CURVE",
"621 464 OFFCURVE",
"630 450 OFFCURVE",
"642 437 CURVE",
"676 398 OFFCURVE",
"667 376 OFFCURVE",
"617 376 CURVE",
"591 376 OFFCURVE",
"584 380 OFFCURVE",
"549 416 CURVE"
);
}
);
width = 1132;
}
);
},
{
export = 0;
glyphname = gorgon.alt;
lastChange = "2019-03-05 23:01:07 +0000";
layers = (
{
layerId = "30EC318A-0B0E-41B4-91F7-41CEE05FF9CE";
paths = (
{
closed = 1;
nodes = (
"54 558 OFFCURVE",
"30 588 OFFCURVE",
"30 597 CURVE SMOOTH",
"30 601 OFFCURVE",
"116 603 OFFCURVE",
"219 603 CURVE SMOOTH",
"395 603 OFFCURVE",
"409 603 OFFCURVE",
"406 590 CURVE",
"403 579 OFFCURVE",
"392 578 OFFCURVE",
"284 577 CURVE SMOOTH",
"216 576 OFFCURVE",
"166 572 OFFCURVE",
"166 568 CURVE SMOOTH",
"166 564 OFFCURVE",
"175 550 OFFCURVE",
"187 537 CURVE SMOOTH",
"221 498 OFFCURVE",
"212 476 OFFCURVE",
"162 476 CURVE SMOOTH",
"136 476 OFFCURVE",
"129 480 OFFCURVE",
"94 516 CURVE SMOOTH"
);
},
{
closed = 1;
nodes = (
"54 558 OFFCURVE",
"30 588 OFFCURVE",
"30 597 CURVE SMOOTH",
"30 601 OFFCURVE",
"116 603 OFFCURVE",
"219 603 CURVE SMOOTH",
"395 603 OFFCURVE",
"409 603 OFFCURVE",
"406 590 CURVE",
"403 579 OFFCURVE",
"392 578 OFFCURVE",
"284 577 CURVE SMOOTH",
"216 576 OFFCURVE",
"166 572 OFFCURVE",
"166 568 CURVE SMOOTH",
"166 564 OFFCURVE",
"175 550 OFFCURVE",
"187 537 CURVE SMOOTH",
"221 498 OFFCURVE",
"212 476 OFFCURVE",
"162 476 CURVE SMOOTH",
"136 476 OFFCURVE",
"129 480 OFFCURVE",
"94 516 CURVE SMOOTH"
);
}
);
width = 436;
}
);
},
{
export = 0;
glyphname = apostrophos_with_gorg;
lastChange = "2019-03-05 23:01:07 +0000";
layers = (
{
layerId = "30EC318A-0B0E-41B4-91F7-41CEE05FF9CE";
paths = (
{
closed = 1;
nodes = (
"308 -46 OFFCURVE",
"293 -27 OFFCURVE",
"305 -15 CURVE",
"309 -11 OFFCURVE",
"334 -4 OFFCURVE",
"361 1 CURVE",
"407 8 OFFCURVE",
"408 9 OFFCURVE",
"408 30 CURVE",
"408 53 OFFCURVE",
"390 74 OFFCURVE",
"362 90 CURVE",
"334 104 OFFCURVE",
"238 119 OFFCURVE",
"151 123 CURVE",
"29 129 OFFCURVE",
"30 129 OFFCURVE",
"30 159 CURVE",
"30 196 OFFCURVE",
"46 201 OFFCURVE",
"147 192 CURVE",
"365 170 OFFCURVE",
"564 112 OFFCURVE",
"606 59 CURVE",
"624 35 OFFCURVE",
"625 2 OFFCURVE",
"608 -15 CURVE",
"571 -51 OFFCURVE",
"395 -78 OFFCURVE",
"338 -57 CURVE"
);
},
{
closed = 1;
nodes = (
"167 325 OFFCURVE",
"130 375 OFFCURVE",
"130 384 CURVE",
"130 391 OFFCURVE",
"505 392 OFFCURVE",
"510 384 CURVE",
"511 381 OFFCURVE",
"510 374 OFFCURVE",
"508 369 CURVE",
"503 359 OFFCURVE",
"476 357 OFFCURVE",
"382 354 CURVE",
"262 351 LINE",
"284 325 LINE",
"322 282 OFFCURVE",
"313 262 OFFCURVE",
"257 262 CURVE",
"235 262 OFFCURVE",
"224 267 OFFCURVE",
"200 292 CURVE"
);
},
{
closed = 1;
nodes = (
"167 325 OFFCURVE",
"130 375 OFFCURVE",
"130 384 CURVE",
"130 391 OFFCURVE",
"505 392 OFFCURVE",
"510 384 CURVE",
"511 381 OFFCURVE",
"510 374 OFFCURVE",
"508 369 CURVE",
"503 359 OFFCURVE",
"476 357 OFFCURVE",
"382 354 CURVE",
"262 351 LINE",
"284 325 LINE",
"322 282 OFFCURVE",
"313 262 OFFCURVE",
"257 262 CURVE",
"235 262 OFFCURVE",
"224 267 OFFCURVE",
"200 292 CURVE"
);
}
);
width = 650;
}
);
},
{
export = 0;
glyphname = haple;
lastChange = "2019-03-05 23:01:07 +0000";
layers = (
{
layerId = "30EC318A-0B0E-41B4-91F7-41CEE05FF9CE";
paths = (
{
closed = 1;
nodes = (
"14 -37 OFFCURVE",
"26 -21 CURVE SMOOTH",
"32 -13 OFFCURVE",
"36 -2 OFFCURVE",
"42 15 CURVE SMOOTH",
"52 45 OFFCURVE",
"34 45 OFFCURVE",
"99 45 CURVE SMOOTH",
"150 45 OFFCURVE",
"155 43 OFFCURVE",
"148 34 CURVE SMOOTH",
"141 25 OFFCURVE",
"135 0 OFFCURVE",
"131 -11 CURVE SMOOTH",
"122 -36 OFFCURVE",
"131 -45 OFFCURVE",
"72 -45 CURVE SMOOTH",
"21 -45 OFFCURVE"
);
}
